####
#
# OBJ File Generated by Meshlab
#
####
# Object filtered_collision.obj
#
# Vertices: 52
# Faces: 100
#
####
vn 0.984731 -0.166178 -0.051868
v 0.053751 -0.028632 0.063130
vn -0.800021 -0.463403 -0.381082
v -0.021648 -0.084241 0.020342
vn 0.994819 -0.020963 -0.099482
v 0.061507 0.052960 0.014779
vn 0.981382 -0.191413 -0.015855
v 0.053946 -0.037889 0.122681
vn 0.954680 -0.297316 -0.013741
v 0.043411 -0.084255 0.115541
vn 0.168194 0.985752 0.001976
v 0.034927 0.067873 0.110200
vn 0.189790 0.274738 0.942602
v 0.046120 0.054545 0.233461
vn -0.979302 -0.015097 -0.201840
v -0.024343 -0.076823 0.018845
vn -0.986456 0.160152 0.035440
v -0.011342 -0.002307 0.117288
vn 0.769705 -0.113685 0.628196
v 0.051532 -0.035431 0.229067
vn 0.363975 -0.127302 -0.922668
v 0.035680 -0.070922 0.003799
vn 0.122163 0.992033 -0.030773
v 0.016828 0.070473 0.030570
vn 0.131813 -0.280859 0.950654
v 0.026916 -0.065819 0.240588
vn -0.621680 0.783011 0.020205
v 0.005556 0.066940 0.155085
vn -0.998821 -0.026575 0.040634
v -0.019854 -0.080187 0.203317
vn -0.881354 0.447445 -0.151686
v 0.001066 0.063486 0.013136
vn -0.985093 0.171731 0.009960
v -0.010589 0.009805 0.073922
vn -0.289799 0.446192 -0.846717
v 0.005120 0.063444 0.004957
vn -0.038025 0.000533 -0.999277
v 0.020383 -0.007042 0.001218
vn -0.587843 -0.053023 -0.807235
v -0.016639 -0.055465 0.005980
vn 0.318577 0.947885 -0.004743
v 0.054934 0.063890 0.088337
vn -0.071091 0.997459 0.004707
v 0.016275 0.070583 0.129282
vn -0.985024 0.156159 0.073094
v -0.001553 0.028325 0.219808
vn -0.990676 0.133971 0.024741
v -0.022718 -0.072002 0.059963
vn 0.283790 -0.958863 -0.006756
v 0.032635 -0.097773 0.118274
vn -0.469386 -0.799540 -0.374717
v -0.016401 -0.088901 0.016760
vn 0.810460 -0.482013 -0.332892
v 0.039353 -0.089893 0.012899
vn 0.987357 -0.156102 0.027545
v 0.059377 -0.008041 0.170331
vn 0.898915 0.227107 0.374666
v 0.065468 0.054866 0.225120
vn -0.108449 0.941171 0.320057
v 0.015231 0.069988 0.223429
vn 0.409350 0.864278 0.292330
v 0.059505 0.062666 0.223303
vn -0.193046 -0.375411 0.906532
v -0.006650 -0.077933 0.236964
vn -0.772969 0.359675 0.522641
v 0.004203 0.060465 0.228277
vn -0.376191 -0.926521 0.006221
v -0.011281 -0.092587 0.132288
vn 0.192686 -0.525360 -0.828776
v 0.027305 -0.087958 0.005454
vn -0.236827 -0.349005 -0.906702
v -0.000193 -0.085534 0.004293
vn -0.945251 0.325461 0.023996
v 0.000747 0.059440 0.143348
vn -0.212569 0.968719 -0.128056
v 0.009782 0.070209 0.021627
vn 0.998423 0.055973 -0.004382
v 0.066613 0.051590 0.188245
vn 0.657517 0.564435 -0.499084
v 0.060196 0.061876 0.007885
vn 0.836641 0.547699 -0.007548
v 0.063594 0.058991 0.145047
vn -0.888658 -0.365203 0.277333
v -0.018025 -0.083644 0.226020
vn -0.102337 0.080941 0.991451
v 0.022579 0.016984 0.237177
vn -0.014066 -0.931842 0.362592
v 0.024174 -0.096562 0.205813
vn 0.991382 -0.128365 -0.026163
v 0.060829 0.006139 0.110908
vn 0.208464 0.010306 -0.977976
v 0.048198 0.020473 0.002732
vn 0.964790 -0.262999 0.003338
v 0.043405 -0.087747 0.213734
vn 0.726931 -0.621053 0.293027
v 0.042239 -0.091352 0.225660
vn 0.841743 -0.539678 -0.014716
v 0.040232 -0.092309 0.119730
vn 0.959822 -0.279405 -0.025969
v 0.041452 -0.086468 0.044004
vn 0.041133 -0.947956 -0.315734
v 0.027571 -0.095874 0.015204
vn -0.230498 -0.891690 0.389564
v -0.008005 -0.091114 0.223189
# 52 vertices, 0 vertices normals

f 8//8 17//17 16//16
f 11//11 36//36 19//19
f 22//22 30//30 6//6
f 31//31 6//6 30//30
f 42//42 32//32 33//33
f 8//8 16//16 20//20
f 17//17 9//9 37//37
f 19//19 18//18 46//46
f 20//20 19//19 36//36
f 34//34 2//2 26//26
f 46//46 11//11 19//19
f 5//5 50//50 4//4
f 48//48 47//47 28//28
f 48//48 28//28 10//10
f 23//23 9//9 15//15
f 30//30 7//7 31//31
f 33//33 37//37 9//9
f 33//33 9//9 23//23
f 2//2 8//8 20//20
f 9//9 24//24 15//15
f 26//26 51//51 34//34
f 18//18 20//20 16//16
f 2//2 20//20 36//36
f 40//40 11//11 46//46
f 3//3 27//27 40//40
f 41//41 39//39 3//3
f 28//28 47//47 4//4
f 4//4 1//1 45//45
f 1//1 3//3 45//45
f 4//4 45//45 28//28
f 39//39 41//41 29//29
f 31//31 21//21 6//6
f 22//22 12//12 38//38
f 6//6 21//21 12//12
f 12//12 22//22 6//6
f 42//42 33//33 23//23
f 13//13 43//43 32//32
f 17//17 8//8 24//24
f 17//17 24//24 9//9
f 15//15 8//8 2//2
f 44//44 34//34 25//25
f 34//34 51//51 25//25
f 49//49 25//25 27//27
f 40//40 46//46 18//18
f 20//20 18//18 19//19
f 14//14 38//38 16//16
f 16//16 37//37 14//14
f 40//40 38//38 12//12
f 40//40 27//27 11//11
f 35//35 11//11 27//27
f 39//39 45//45 3//3
f 4//4 47//47 5//5
f 1//1 50//50 27//27
f 1//1 4//4 50//50
f 31//31 29//29 41//41
f 40//40 12//12 21//21
f 21//21 31//31 41//41
f 22//22 14//14 30//30
f 22//22 38//38 14//14
f 42//42 23//23 15//15
f 43//43 33//33 32//32
f 7//7 30//30 33//33
f 16//16 17//17 37//37
f 24//24 8//8 15//15
f 2//2 42//42 15//15
f 42//42 52//52 32//32
f 42//42 2//2 34//34
f 39//39 28//28 45//45
f 39//39 29//29 28//28
f 7//7 13//13 10//10
f 44//44 52//52 34//34
f 36//36 26//26 2//2
f 36//36 51//51 26//26
f 48//48 25//25 49//49
f 38//38 18//18 16//16
f 35//35 27//27 51//51
f 40//40 21//21 41//41
f 40//40 41//41 3//3
f 43//43 7//7 33//33
f 7//7 43//43 13//13
f 33//33 14//14 37//37
f 34//34 52//52 42//42
f 13//13 48//48 10//10
f 7//7 10//10 29//29
f 25//25 48//48 44//44
f 49//49 27//27 50//50
f 27//27 25//25 51//51
f 36//36 11//11 35//35
f 32//32 44//44 13//13
f 32//32 52//52 44//44
f 14//14 33//33 30//30
f 3//3 1//1 27//27
f 5//5 47//47 49//49
f 47//47 48//48 49//49
f 50//50 5//5 49//49
f 29//29 10//10 28//28
f 31//31 7//7 29//29
f 48//48 13//13 44//44
f 18//18 38//38 40//40
f 51//51 36//36 35//35
# 100 faces, 0 coords texture

# End of File
